<svg width="22" height="23" viewBox="0 0 22 23" fill="none" xmlns="http://www.w3.org/2000/svg">
<g clip-path="url(#clip0_80_1394)">
<path d="M10.125 4.31254H6.625M15.375 5.75004V15.3334C15.375 19.1667 14.5 20.125 11 20.125H5.75C2.25 20.125 1.375 19.1667 1.375 15.3334V5.75004C1.375 1.91671 2.25 0.958374 5.75 0.958374H11C14.5 0.958374 15.375 1.91671 15.375 5.75004Z" stroke="white" stroke-width="1.5" stroke-linecap="round" stroke-linejoin="round"/>
<path d="M8.375 17.3458C8.7347 17.3458 9.07967 17.1893 9.33402 16.9108C9.58836 16.6322 9.73125 16.2544 9.73125 15.8604C9.73125 15.4665 9.58836 15.0886 9.33402 14.8101C9.07967 14.5315 8.7347 14.375 8.375 14.375C8.0153 14.375 7.67034 14.5315 7.41599 14.8101C7.16164 15.0886 7.01875 15.4665 7.01875 15.8604C7.01875 16.2544 7.16164 16.6322 7.41599 16.9108C7.67034 17.1893 8.0153 17.3458 8.375 17.3458V17.3458Z" stroke="white" stroke-width="1.5" stroke-linecap="round" stroke-linejoin="round"/>
</g>
<defs>
<clipPath id="clip0_80_1394">
<rect width="21" height="23" fill="white" transform="translate(0.5)"/>
</clipPath>
</defs>
</svg>
