<svg width="34" height="34" viewBox="0 0 34 34" fill="none" xmlns="http://www.w3.org/2000/svg">
<path opacity="0.4" d="M29.2131 11.9709C27.7256 5.42591 22.0164 2.47925 17.0014 2.47925H16.9872C11.9864 2.47925 6.26308 5.41175 4.77558 11.9567C3.11808 19.2667 7.59475 25.4576 11.6464 29.3534C13.0825 30.7434 15.0028 31.5207 17.0014 31.5209C18.9281 31.5209 20.8547 30.7984 22.3422 29.3534C26.3939 25.4576 30.8706 19.2809 29.2131 11.9709Z" fill="#A55FEA"/>
<path d="M17.0028 19.0683C17.5889 19.0683 18.1692 18.9529 18.7106 18.7286C19.252 18.5044 19.7439 18.1757 20.1583 17.7613C20.5727 17.3469 20.9014 16.855 21.1257 16.3135C21.3499 15.7721 21.4653 15.1918 21.4653 14.6058C21.4653 14.0198 21.3499 13.4395 21.1257 12.8981C20.9014 12.3567 20.5727 11.8647 20.1583 11.4503C19.7439 11.036 19.252 10.7073 18.7106 10.483C18.1692 10.2587 17.5889 10.1433 17.0028 10.1433C15.8193 10.1433 14.6843 10.6135 13.8474 11.4503C13.0105 12.2872 12.5403 13.4223 12.5403 14.6058C12.5403 15.7893 13.0105 16.9244 13.8474 17.7613C14.6843 18.5982 15.8193 19.0683 17.0028 19.0683Z" fill="#A55FEA"/>
</svg>
