<svg width="84" height="84" viewBox="0 0 84 84" fill="none" xmlns="http://www.w3.org/2000/svg">
<path opacity="0.4" d="M67.69 50.7081L64.19 44.8981C63.455 43.6031 62.79 41.1531 62.79 39.7181V30.8631C62.79 19.4531 53.515 10.1431 42.07 10.1431C30.625 10.1431 21.35 19.4531 21.35 30.8631V39.7181C21.35 41.1531 20.685 43.6031 19.95 44.8631L16.415 50.7081C15.015 53.0531 14.7 55.6431 15.575 58.0231C16.415 60.3681 18.41 62.1881 21 63.0631C27.79 65.3731 34.93 66.4931 42.07 66.4931C49.21 66.4931 56.35 65.3731 63.14 63.0981C65.59 62.2931 67.48 60.4381 68.39 58.0231C69.3 55.6081 69.055 52.9481 67.69 50.7081Z" fill="#A55FEA"/>
<path d="M49.875 11.62C47.46 10.675 44.835 10.15 42.07 10.15C39.34 10.15 36.715 10.64 34.3 11.62C35.805 8.785 38.78 7 42.07 7C45.395 7 48.335 8.785 49.875 11.62ZM51.905 70.035C51.169 72.0725 49.8235 73.8341 48.0513 75.0802C46.2792 76.3263 44.1664 76.9966 42 77C39.235 77 36.505 75.88 34.58 73.885C33.46 72.835 32.62 71.435 32.13 70C32.585 70.07 33.04 70.105 33.53 70.175C34.335 70.28 35.175 70.385 36.015 70.455C38.01 70.63 40.04 70.735 42.07 70.735C44.065 70.735 46.06 70.63 48.02 70.455C48.755 70.385 49.49 70.35 50.19 70.245L51.905 70.035Z" fill="#A55FEA"/>
</svg>
