<svg width="84" height="84" viewBox="0 0 84 84" fill="none" xmlns="http://www.w3.org/2000/svg">
<path opacity="0.4" d="M71.87 26.3512V36.2912L26.335 69.6812L17.13 62.7863C14.855 61.0713 13 57.3962 13 54.5612V26.3512C13 22.4312 16.01 18.0912 19.685 16.7262L38.83 9.55125C40.825 8.81625 44.045 8.81625 46.04 9.55125L65.185 16.7262C68.86 18.0912 71.87 22.4312 71.87 26.3512Z" fill="#A55FEA"/>
<path d="M71.435 39.1021V52.5771C71.435 55.4121 69.58 59.087 67.305 60.802L48.16 75.1171C46.48 76.3771 44.24 77.0071 42 77.0071C39.76 77.0071 37.52 76.3771 35.84 75.1171L29.12 70.112L71.435 39.1021Z" fill="#A55FEA"/>
</svg>
