<svg width="34" height="34" viewBox="0 0 34 34" fill="none" xmlns="http://www.w3.org/2000/svg">
<path d="M3.83918 24.1117L6.30418 19.1817C6.98418 17.8075 6.98418 16.2067 6.30418 14.8325L3.83918 9.88832C1.72835 5.66665 6.27585 1.20415 10.455 3.41415L12.6367 4.57582C12.9483 4.73165 13.1892 4.98665 13.3167 5.29832L21.3775 23.2191C21.7034 23.9558 21.4058 24.82 20.6975 25.1883L10.4408 30.5858C6.27585 32.7958 1.72835 28.3333 3.83918 24.1117Z" fill="#A55FEA"/>
<path opacity="0.4" d="M23.1058 22.0999L17.8216 10.3699C17.2266 9.0524 18.6433 7.72073 19.9183 8.40073L28.0925 12.7074C31.5633 14.5349 31.5633 19.4932 28.0925 21.3207L25.2025 22.8366C24.4233 23.2332 23.4741 22.9074 23.1058 22.0999Z" fill="#A55FEA"/>
</svg>
