<svg width="24" height="24" viewBox="0 0 24 24" fill="none" xmlns="http://www.w3.org/2000/svg">
<path opacity="0.4" d="M16.24 2H7.76C5 2 4 3 4 5.81V18.19C4 21 5 22 7.76 22H16.23C19 22 20 21 20 18.19V5.81C20 3 19 2 16.24 2Z" fill="#EDDFFB"/>
<path d="M14 6.25H10C9.59 6.25 9.25 5.91 9.25 5.5C9.25 5.09 9.59 4.75 10 4.75H14C14.41 4.75 14.75 5.09 14.75 5.5C14.75 5.91 14.41 6.25 14 6.25ZM12 19.3C12.4641 19.3 12.9092 19.1156 13.2374 18.7874C13.5656 18.4592 13.75 18.0141 13.75 17.55C13.75 17.0859 13.5656 16.6408 13.2374 16.3126C12.9092 15.9844 12.4641 15.8 12 15.8C11.5359 15.8 11.0908 15.9844 10.7626 16.3126C10.4344 16.6408 10.25 17.0859 10.25 17.55C10.25 18.0141 10.4344 18.4592 10.7626 18.7874C11.0908 19.1156 11.5359 19.3 12 19.3Z" fill="#EDDFFB"/>
</svg>
